<svg xmlns="http://www.w3.org/2000/svg" xmlns:xlink="http://www.w3.org/1999/xlink" width="500" zoomAndPan="magnify" viewBox="0 0 375 374.999991" height="500" preserveAspectRatio="xMidYMid meet" version="1.0"><defs><g/></defs><g fill="#ecb365" fill-opacity="1"><g transform="translate(142.819301, 227.754023)"><g><path d="M 25.390625 -2.3125 C 25.679688 -1.5 25.925781 -0.828125 26.125 -0.296875 C 26.332031 0.234375 26.488281 0.691406 26.59375 1.078125 C 26.707031 1.460938 26.789062 1.800781 26.84375 2.09375 C 26.894531 2.382812 26.921875 2.691406 26.921875 3.015625 C 26.921875 4.222656 26.488281 5.46875 25.625 6.75 C 24.769531 8.039062 23.707031 9.222656 22.4375 10.296875 C 21.175781 11.378906 19.820312 12.257812 18.375 12.9375 C 16.9375 13.613281 15.628906 13.953125 14.453125 13.953125 C 12.398438 13.953125 10.539062 13.4375 8.875 12.40625 C 7.207031 11.382812 5.859375 10.050781 4.828125 8.40625 L 2.359375 4.390625 C 1.628906 3.441406 1.039062 2.398438 0.59375 1.265625 C 0.15625 0.128906 -0.0625 -1.078125 -0.0625 -2.359375 C -0.0625 -3.023438 0.101562 -3.96875 0.4375 -5.1875 C 0.769531 -6.414062 1.15625 -7.726562 1.59375 -9.125 C 0.820312 -9.050781 0.0976562 -8.992188 -0.578125 -8.953125 C -1.253906 -8.921875 -1.757812 -8.882812 -2.09375 -8.84375 L -5.546875 -14.125 L 0.71875 -24.78125 C 1.664062 -24.78125 2.5625 -24.640625 3.40625 -24.359375 C 4.25 -24.085938 5.144531 -23.878906 6.09375 -23.734375 C 5.945312 -24.023438 5.863281 -24.269531 5.84375 -24.46875 C 5.832031 -24.675781 5.828125 -24.953125 5.828125 -25.296875 C 5.828125 -25.648438 5.796875 -26.140625 5.734375 -26.765625 C 5.679688 -27.390625 5.566406 -28.269531 5.390625 -29.40625 C 6.160156 -29.875 6.9375 -30.253906 7.71875 -30.546875 C 8.507812 -30.847656 9.367188 -31.109375 10.296875 -31.328125 C 11.234375 -31.546875 12.269531 -31.734375 13.40625 -31.890625 C 14.539062 -32.054688 15.859375 -32.253906 17.359375 -32.484375 L 17.3125 -32.203125 L 20.4375 -26.921875 C 20.726562 -26.117188 21.195312 -25.019531 21.84375 -23.625 C 22.488281 -22.238281 23.34375 -20.535156 24.40625 -18.515625 C 24.84375 -17.671875 25.0625 -16.460938 25.0625 -14.890625 C 25.0625 -12.328125 24.347656 -10.914062 22.921875 -10.65625 L 20.21875 -10.328125 C 20.625 -10.003906 21.035156 -9.546875 21.453125 -8.953125 C 21.878906 -8.367188 22.238281 -7.726562 22.53125 -7.03125 Z M 21.703125 -2.359375 C 21.703125 -2.796875 21.644531 -3.335938 21.53125 -3.984375 C 21.425781 -4.628906 21.28125 -5.253906 21.09375 -5.859375 C 20.914062 -6.460938 20.707031 -7 20.46875 -7.46875 C 20.226562 -7.945312 19.984375 -8.242188 19.734375 -8.359375 L 15.4375 -6.09375 C 16.5 -4.707031 17.03125 -3.390625 17.03125 -2.140625 L 17.03125 -1.984375 C 17.03125 -1.023438 16.570312 -0.15625 15.65625 0.625 C 14.738281 1.414062 13.347656 1.8125 11.484375 1.8125 C 10.929688 1.8125 10.40625 1.664062 9.90625 1.375 C 9.414062 1.082031 8.976562 0.695312 8.59375 0.21875 C 8.207031 -0.257812 7.894531 -0.78125 7.65625 -1.34375 C 7.425781 -1.914062 7.289062 -2.457031 7.25 -2.96875 L 7.25 -3.578125 C 7.25 -5.078125 7.566406 -6.941406 8.203125 -9.171875 C 8.847656 -11.410156 9.722656 -14.050781 10.828125 -17.09375 L 19.40625 -18.078125 C 19.65625 -18.117188 19.78125 -18.832031 19.78125 -20.21875 C 19.78125 -21.976562 19.691406 -22.859375 19.515625 -22.859375 C 18.628906 -22.597656 17.5625 -22.347656 16.3125 -22.109375 C 15.070312 -21.878906 13.628906 -21.671875 11.984375 -21.484375 L 14.390625 -29.84375 C 12.640625 -29.507812 11.203125 -29.210938 10.078125 -28.953125 C 8.960938 -28.703125 8.203125 -28.46875 7.796875 -28.25 C 7.835938 -27.769531 7.882812 -27.328125 7.9375 -26.921875 C 7.988281 -26.523438 8.015625 -26.160156 8.015625 -25.828125 C 8.015625 -25.316406 7.992188 -24.8125 7.953125 -24.3125 C 7.921875 -23.820312 7.859375 -23.375 7.765625 -22.96875 C 7.679688 -22.5625 7.546875 -22.226562 7.359375 -21.96875 C 7.179688 -21.71875 6.945312 -21.59375 6.65625 -21.59375 C 6.425781 -21.59375 6.054688 -21.640625 5.546875 -21.734375 C 5.035156 -21.828125 4.503906 -21.925781 3.953125 -22.03125 C 3.398438 -22.144531 2.914062 -22.242188 2.5 -22.328125 C 2.082031 -22.421875 1.851562 -22.46875 1.8125 -22.46875 L -1.65625 -16.546875 C -0.769531 -16.617188 0.0546875 -16.671875 0.828125 -16.703125 C 1.597656 -16.742188 2.289062 -16.765625 2.90625 -16.765625 C 4.269531 -16.765625 5.367188 -16.691406 6.203125 -16.546875 L 6.203125 -16.484375 C 6.203125 -16.410156 6.101562 -16.070312 5.90625 -15.46875 C 5.707031 -14.863281 5.453125 -14.117188 5.140625 -13.234375 C 4.828125 -12.359375 4.492188 -11.378906 4.140625 -10.296875 C 3.796875 -9.222656 3.46875 -8.171875 3.15625 -7.140625 C 2.84375 -6.117188 2.585938 -5.175781 2.390625 -4.3125 C 2.191406 -3.445312 2.09375 -2.796875 2.09375 -2.359375 C 2.09375 -1.148438 2.335938 -0.0078125 2.828125 1.0625 C 3.328125 2.144531 3.992188 3.085938 4.828125 3.890625 C 5.671875 4.703125 6.648438 5.347656 7.765625 5.828125 C 8.890625 6.304688 10.054688 6.546875 11.265625 6.546875 C 12.285156 6.546875 13.398438 6.269531 14.609375 5.71875 C 15.828125 5.164062 16.957031 4.457031 18 3.59375 C 19.039062 2.738281 19.914062 1.785156 20.625 0.734375 C 21.34375 -0.304688 21.703125 -1.335938 21.703125 -2.359375 Z M 13.734375 -4.5625 C 13.484375 -3.789062 13.265625 -3.066406 13.078125 -2.390625 C 12.890625 -1.710938 12.742188 -1.046875 12.640625 -0.390625 C 13.410156 -0.492188 13.976562 -0.707031 14.34375 -1.03125 C 14.707031 -1.363281 14.890625 -1.679688 14.890625 -1.984375 L 14.890625 -2.140625 C 14.890625 -2.429688 14.835938 -2.6875 14.734375 -2.90625 Z M 15.5 -9.84375 C 15.351562 -9.539062 15.242188 -9.257812 15.171875 -9 C 15.097656 -8.75 15.003906 -8.515625 14.890625 -8.296875 L 18.796875 -10.21875 Z M 17.3125 1.09375 L 17.140625 0.765625 C 17.210938 0.835938 17.257812 0.898438 17.28125 0.953125 C 17.300781 1.015625 17.328125 1.082031 17.359375 1.15625 Z M 17.3125 1.09375 "/></g></g></g><g fill="#ecb365" fill-opacity="1"><g transform="translate(168.260762, 227.754023)"><g><path d="M 35.21875 -20.546875 C 35.664062 -18.566406 35.890625 -16.9375 35.890625 -15.65625 L 29.34375 -15.65625 C 30.1875 -10.53125 30.863281 -5.492188 31.375 -0.546875 C 31.882812 4.398438 32.453125 9.472656 33.078125 14.671875 C 28.972656 15.328125 24.96875 15.828125 21.0625 16.171875 C 17.164062 16.523438 13.332031 16.703125 9.5625 16.703125 C 9.15625 16.703125 8.675781 16.691406 8.125 16.671875 C 7.582031 16.660156 7.015625 16.65625 6.421875 16.65625 C 5.835938 16.65625 5.257812 16.644531 4.6875 16.625 C 4.125 16.601562 3.644531 16.59375 3.25 16.59375 C 0.75 12.238281 -0.585938 9.75 -0.765625 9.125 C -0.910156 8.425781 -0.984375 7.96875 -0.984375 7.75 C -0.984375 7.382812 -0.957031 7.023438 -0.90625 6.671875 C -0.851562 6.328125 -0.734375 5.988281 -0.546875 5.65625 C -0.441406 4.300781 -0.390625 3.257812 -0.390625 2.53125 C -0.390625 2.238281 -0.40625 2 -0.4375 1.8125 C -0.476562 1.625 -0.515625 1.4375 -0.546875 1.25 C -0.585938 1.070312 -0.625 0.847656 -0.65625 0.578125 C -0.695312 0.304688 -0.71875 -0.0859375 -0.71875 -0.609375 C -0.71875 -1.117188 -0.53125 -1.738281 -0.15625 -2.46875 C 0.207031 -3.207031 0.769531 -4.160156 1.53125 -5.328125 L 4.28125 -5.28125 C 4.320312 -6.269531 4.378906 -7.25 4.453125 -8.21875 C 4.523438 -9.1875 4.5625 -10.332031 4.5625 -11.65625 L 4.5625 -12.140625 C 4.5625 -12.472656 4.578125 -12.65625 4.609375 -12.6875 L 4.609375 -12.90625 C 4.679688 -13.457031 4.707031 -14.015625 4.6875 -14.578125 C 4.675781 -15.148438 4.707031 -15.710938 4.78125 -16.265625 L 2.3125 -16.328125 L -0.828125 -21.59375 L -1.046875 -21.59375 C -1.117188 -22.21875 -1.191406 -22.8125 -1.265625 -23.375 C -1.335938 -23.945312 -1.375 -24.398438 -1.375 -24.734375 C -1.375 -25.609375 -1.160156 -26.4375 -0.734375 -27.21875 C -0.316406 -28.007812 0.273438 -28.773438 1.046875 -29.515625 L 13.578125 -29.734375 C 14.742188 -29.367188 15.554688 -29.082031 16.015625 -28.875 C 16.472656 -28.675781 16.832031 -28.578125 17.09375 -28.578125 C 17.269531 -28.578125 17.46875 -28.628906 17.6875 -28.734375 C 17.914062 -28.847656 18.144531 -28.988281 18.375 -29.15625 C 18.613281 -29.320312 18.867188 -29.46875 19.140625 -29.59375 C 19.421875 -29.71875 19.707031 -29.78125 20 -29.78125 C 20.1875 -29.78125 20.625 -29.769531 21.3125 -29.75 C 22.007812 -29.738281 22.78125 -29.703125 23.625 -29.640625 C 24.46875 -29.585938 25.289062 -29.523438 26.09375 -29.453125 C 26.90625 -29.378906 27.53125 -29.304688 27.96875 -29.234375 C 28.476562 -29.117188 28.867188 -29.050781 29.140625 -29.03125 C 29.421875 -29.019531 29.765625 -28.785156 30.171875 -28.328125 C 30.578125 -27.867188 31.15625 -27.050781 31.90625 -25.875 C 32.65625 -24.707031 33.757812 -22.929688 35.21875 -20.546875 Z M 30.609375 -23.078125 C 30.609375 -24.398438 30.3125 -25.332031 29.71875 -25.875 C 29.132812 -26.425781 28.359375 -26.785156 27.390625 -26.953125 C 26.421875 -27.117188 25.300781 -27.207031 24.03125 -27.21875 C 22.769531 -27.238281 21.460938 -27.378906 20.109375 -27.640625 C 19.484375 -27.523438 18.953125 -27.15625 18.515625 -26.53125 C 18.078125 -25.914062 17.859375 -25.257812 17.859375 -24.5625 C 17.859375 -23.976562 18.023438 -23.554688 18.359375 -23.296875 L 20.9375 -23.140625 C 20.9375 -23.097656 20.984375 -22.820312 21.078125 -22.3125 C 21.171875 -21.800781 21.28125 -21.222656 21.40625 -20.578125 C 21.53125 -19.941406 21.640625 -19.320312 21.734375 -18.71875 C 21.828125 -18.113281 21.875 -17.71875 21.875 -17.53125 C 21.875 -17.050781 21.800781 -16.796875 21.65625 -16.765625 L 12.53125 -16.765625 C 12.195312 -16.796875 11.851562 -16.820312 11.5 -16.84375 C 11.15625 -16.863281 10.847656 -16.914062 10.578125 -17 C 10.304688 -17.09375 10.085938 -17.25 9.921875 -17.46875 C 9.753906 -17.695312 9.671875 -18.03125 9.671875 -18.46875 L 9.84375 -23.296875 L 11.375 -23.296875 C 12.21875 -23.296875 12.882812 -23.296875 13.375 -23.296875 C 13.875 -23.296875 14.242188 -23.320312 14.484375 -23.375 C 14.722656 -23.4375 14.878906 -23.519531 14.953125 -23.625 C 15.023438 -23.738281 15.0625 -23.90625 15.0625 -24.125 L 15.0625 -25.5 C 15.0625 -26.519531 14.472656 -27.234375 13.296875 -27.640625 L 1.875 -27.359375 C 1.175781 -26.742188 0.828125 -25.867188 0.828125 -24.734375 C 0.828125 -24.585938 0.832031 -24.421875 0.84375 -24.234375 C 0.863281 -24.046875 0.894531 -23.863281 0.9375 -23.6875 L 6.703125 -23.46875 C 6.890625 -23.175781 6.984375 -22.078125 6.984375 -20.171875 C 6.984375 -19.546875 6.960938 -18.570312 6.921875 -17.25 C 6.890625 -15.9375 6.835938 -14.460938 6.765625 -12.828125 C 6.691406 -11.203125 6.613281 -9.523438 6.53125 -7.796875 C 6.457031 -6.078125 6.382812 -4.503906 6.3125 -3.078125 L 2.578125 -3.1875 C 2.179688 -2.5625 1.890625 -1.984375 1.703125 -1.453125 C 1.515625 -0.921875 1.421875 -0.398438 1.421875 0.109375 L 1.421875 0.546875 C 1.460938 0.585938 1.484375 0.625 1.484375 0.65625 C 1.484375 0.769531 1.5 0.863281 1.53125 0.9375 C 2.300781 0.71875 3.226562 0.5625 4.3125 0.46875 C 5.394531 0.375 6.628906 0.328125 8.015625 0.328125 C 10.546875 0.328125 12.945312 0.382812 15.21875 0.5 C 15.332031 0.125 15.390625 -0.332031 15.390625 -0.875 C 15.390625 -1.757812 15.113281 -2.675781 14.5625 -3.625 C 13.5 -3.519531 12.640625 -3.46875 11.984375 -3.46875 C 10.515625 -3.46875 9.648438 -3.628906 9.390625 -3.953125 L 9.390625 -11.703125 C 9.429688 -12.472656 9.550781 -13.03125 9.75 -13.375 C 9.957031 -13.726562 10.390625 -13.90625 11.046875 -13.90625 L 20.328125 -13.6875 C 20.691406 -13.644531 21.007812 -13.335938 21.28125 -12.765625 C 21.5625 -12.203125 21.8125 -11.234375 22.03125 -9.859375 C 22.25 -8.484375 22.429688 -6.625 22.578125 -4.28125 C 22.734375 -1.9375 22.898438 1.046875 23.078125 4.671875 C 20.734375 4.960938 18.394531 5.191406 16.0625 5.359375 C 13.738281 5.523438 11.367188 5.609375 8.953125 5.609375 L 5.4375 5.609375 C 4.414062 5.609375 3.617188 5.632812 3.046875 5.6875 C 2.484375 5.738281 2.0625 5.847656 1.78125 6.015625 C 1.507812 6.179688 1.34375 6.410156 1.28125 6.703125 C 1.226562 6.992188 1.203125 7.378906 1.203125 7.859375 C 1.203125 8.046875 1.21875 8.25 1.25 8.46875 C 1.289062 8.6875 1.367188 8.941406 1.484375 9.234375 C 2.328125 9.265625 3.148438 9.289062 3.953125 9.3125 C 4.765625 9.332031 5.550781 9.34375 6.3125 9.34375 C 13.820312 9.34375 20.929688 8.789062 27.640625 7.6875 C 27.273438 5.125 26.953125 2.5625 26.671875 0 C 26.398438 -2.5625 26.125 -5.125 25.84375 -7.6875 C 25.570312 -10.257812 25.269531 -12.828125 24.9375 -15.390625 C 24.613281 -17.953125 24.195312 -20.515625 23.6875 -23.078125 Z M 14.625 -5.71875 C 14.800781 -5.71875 14.972656 -5.722656 15.140625 -5.734375 C 15.304688 -5.753906 15.476562 -5.785156 15.65625 -5.828125 C 16.175781 -5.015625 16.5625 -4.28125 16.8125 -3.625 L 18.84375 -0.328125 C 19.21875 0.253906 19.550781 0.800781 19.84375 1.3125 C 20.132812 1.832031 20.460938 2.328125 20.828125 2.796875 C 20.679688 0.710938 20.578125 -1.054688 20.515625 -2.515625 C 20.460938 -3.984375 20.421875 -5.25 20.390625 -6.3125 L 14.625 -6.546875 Z M 14.625 -5.71875 "/></g></g></g><g fill="#ecb365" fill-opacity="1"><g transform="translate(200.460967, 227.754023)"><g><path d="M 17.09375 -14.890625 C 16.425781 -14.890625 15.632812 -14.539062 14.71875 -13.84375 C 13.8125 -13.144531 12.9375 -12.289062 12.09375 -11.28125 C 11.25 -10.28125 10.53125 -9.191406 9.9375 -8.015625 C 9.351562 -6.847656 9.0625 -5.769531 9.0625 -4.78125 C 9.0625 -3.601562 9.554688 -3.015625 10.546875 -3.015625 C 11.316406 -3.015625 12.140625 -3.363281 13.015625 -4.0625 C 13.898438 -4.757812 14.707031 -5.628906 15.4375 -6.671875 C 16.175781 -7.722656 16.78125 -8.851562 17.25 -10.0625 C 17.726562 -11.269531 17.96875 -12.40625 17.96875 -13.46875 C 17.96875 -13.832031 17.898438 -14.160156 17.765625 -14.453125 C 17.640625 -14.742188 17.414062 -14.890625 17.09375 -14.890625 Z M 14.234375 -27.8125 C 16.066406 -27.8125 17.890625 -27.316406 19.703125 -26.328125 C 21.515625 -25.335938 23.148438 -23.988281 24.609375 -22.28125 C 26.078125 -20.582031 27.257812 -18.585938 28.15625 -16.296875 C 29.0625 -14.003906 29.515625 -11.539062 29.515625 -8.90625 C 29.515625 -6.1875 29.097656 -3.644531 28.265625 -1.28125 C 27.441406 1.070312 26.28125 3.132812 24.78125 4.90625 C 23.28125 6.6875 21.46875 8.085938 19.34375 9.109375 C 17.21875 10.140625 14.851562 10.65625 12.25 10.65625 C 11.300781 10.65625 10.457031 10.582031 9.71875 10.4375 C 8.988281 10.289062 8.300781 10.039062 7.65625 9.6875 C 7.019531 9.34375 6.398438 8.894531 5.796875 8.34375 C 5.191406 7.800781 4.5625 7.109375 3.90625 6.265625 C 3.164062 5.390625 2.484375 4.375 1.859375 3.21875 C 1.242188 2.0625 0.695312 0.863281 0.21875 -0.375 C -0.257812 -1.625 -0.625 -2.867188 -0.875 -4.109375 C -1.132812 -5.359375 -1.265625 -6.515625 -1.265625 -7.578125 C -1.265625 -10.148438 -0.84375 -12.648438 0 -15.078125 C 0.84375 -17.515625 1.976562 -19.675781 3.40625 -21.5625 C 4.832031 -23.457031 6.476562 -24.972656 8.34375 -26.109375 C 10.21875 -27.242188 12.179688 -27.8125 14.234375 -27.8125 Z M 19.734375 -11.046875 C 19.429688 -9.867188 18.957031 -8.675781 18.3125 -7.46875 C 17.675781 -6.257812 16.925781 -5.171875 16.0625 -4.203125 C 15.207031 -3.234375 14.300781 -2.445312 13.34375 -1.84375 C 12.394531 -1.238281 11.460938 -0.9375 10.546875 -0.9375 C 8.242188 -0.9375 6.488281 -1.566406 5.28125 -2.828125 C 4.070312 -4.085938 3.46875 -5.859375 3.46875 -8.140625 C 3.46875 -9.597656 3.804688 -11.171875 4.484375 -12.859375 C 5.160156 -14.546875 6.035156 -16.101562 7.109375 -17.53125 C 8.191406 -18.957031 9.390625 -20.132812 10.703125 -21.0625 C 12.023438 -22 13.332031 -22.46875 14.625 -22.46875 C 15.425781 -22.46875 16.164062 -22.238281 16.84375 -21.78125 C 17.519531 -21.332031 18.085938 -20.703125 18.546875 -19.890625 C 19.003906 -19.085938 19.359375 -18.144531 19.609375 -17.0625 C 19.867188 -15.976562 20 -14.832031 20 -13.625 C 20 -12.457031 19.910156 -11.597656 19.734375 -11.046875 Z M 14.234375 -25.65625 C 12.472656 -25.65625 10.785156 -25.140625 9.171875 -24.109375 C 7.566406 -23.085938 6.148438 -21.742188 4.921875 -20.078125 C 3.691406 -18.410156 2.71875 -16.488281 2 -14.3125 C 1.289062 -12.132812 0.9375 -9.890625 0.9375 -7.578125 C 0.9375 -6.003906 1.109375 -4.554688 1.453125 -3.234375 C 1.804688 -1.921875 2.328125 -0.78125 3.015625 0.1875 C 3.710938 1.164062 4.554688 1.925781 5.546875 2.46875 C 6.535156 3.019531 7.691406 3.296875 9.015625 3.296875 C 11.316406 3.296875 13.410156 2.835938 15.296875 1.921875 C 17.191406 1.003906 18.804688 -0.25 20.140625 -1.84375 C 21.472656 -3.4375 22.503906 -5.300781 23.234375 -7.4375 C 23.972656 -9.582031 24.34375 -11.863281 24.34375 -14.28125 C 24.34375 -21.863281 20.972656 -25.65625 14.234375 -25.65625 Z M 14.234375 -25.65625 "/></g></g></g><g fill="#ecb365" fill-opacity="1"><g transform="translate(227.935552, 227.754023)"><g><path d="M 40.109375 0.828125 L 38.859375 9.453125 C 37.609375 9.554688 36.457031 9.703125 35.40625 9.890625 C 34.363281 10.078125 33.289062 10.351562 32.1875 10.71875 C 31.09375 11.082031 29.894531 11.535156 28.59375 12.078125 C 27.300781 12.628906 25.789062 13.3125 24.0625 14.125 C 21.5 13.09375 19.453125 12.578125 17.921875 12.578125 C 16.890625 12.578125 16.082031 12.742188 15.5 13.078125 L 1.765625 7.09375 L -1.375 1.875 L -1.703125 1.765625 L 3.625 -5.28125 L 6.875 -3.515625 C 6.351562 -5.566406 5.925781 -7.679688 5.59375 -9.859375 C 5.269531 -12.046875 5.109375 -14.253906 5.109375 -16.484375 C 5.109375 -24.472656 7.472656 -28.46875 12.203125 -28.46875 C 14.253906 -28.46875 15.875 -28.109375 17.0625 -27.390625 C 18.25 -26.679688 19.210938 -25.5 19.953125 -23.84375 C 20.972656 -25.5 22.078125 -26.707031 23.265625 -27.46875 C 24.460938 -28.238281 25.992188 -28.625 27.859375 -28.625 C 29.398438 -28.625 30.679688 -28.320312 31.703125 -27.71875 C 32.734375 -27.113281 33.539062 -26.097656 34.125 -24.671875 L 36.4375 -20.71875 C 36.945312 -19.875 37.328125 -18.851562 37.578125 -17.65625 C 37.835938 -16.46875 37.988281 -14.960938 38.03125 -13.140625 C 38.03125 -11.378906 37.890625 -9.78125 37.609375 -8.34375 C 37.335938 -6.914062 37 -5.671875 36.59375 -4.609375 Z M 34.515625 -1.921875 L 27.53125 -0.5 C 27.894531 -1.445312 28.359375 -2.625 28.921875 -4.03125 C 29.492188 -5.445312 30.164062 -7.109375 30.9375 -9.015625 C 31.300781 -9.859375 31.703125 -11.101562 32.140625 -12.75 C 32.585938 -14.394531 32.8125 -16.316406 32.8125 -18.515625 C 32.8125 -20.054688 32.707031 -21.328125 32.5 -22.328125 C 32.300781 -23.335938 31.988281 -24.144531 31.5625 -24.75 C 31.144531 -25.351562 30.625 -25.785156 30 -26.046875 C 29.375 -26.304688 28.660156 -26.4375 27.859375 -26.4375 C 26.835938 -26.4375 25.929688 -26.269531 25.140625 -25.9375 C 24.347656 -25.601562 23.625 -25.078125 22.96875 -24.359375 C 22.3125 -23.648438 21.6875 -22.742188 21.09375 -21.640625 C 20.507812 -20.546875 19.90625 -19.25 19.28125 -17.75 C 19.0625 -19.289062 18.785156 -20.597656 18.453125 -21.671875 C 18.128906 -22.753906 17.691406 -23.632812 17.140625 -24.3125 C 16.597656 -24.988281 15.921875 -25.484375 15.109375 -25.796875 C 14.304688 -26.109375 13.335938 -26.265625 12.203125 -26.265625 C 8.898438 -26.265625 7.25 -23.003906 7.25 -16.484375 C 7.25 -14.910156 7.335938 -13.34375 7.515625 -11.78125 C 7.703125 -10.226562 7.953125 -8.707031 8.265625 -7.21875 C 8.578125 -5.738281 8.914062 -4.3125 9.28125 -2.9375 C 9.65625 -1.5625 10.023438 -0.269531 10.390625 0.9375 C 9.910156 0.675781 9.1875 0.273438 8.21875 -0.265625 C 7.25 -0.816406 5.9375 -1.570312 4.28125 -2.53125 L 1.703125 0.9375 L 12.25 5.5 C 13.382812 5.050781 14.265625 3.691406 14.890625 1.421875 C 11.554688 -0.734375 9.890625 -4.140625 9.890625 -8.796875 C 9.890625 -11.390625 10.144531 -13.242188 10.65625 -14.359375 C 11.175781 -15.484375 11.875 -16.046875 12.75 -16.046875 C 13.738281 -16.046875 14.632812 -15.707031 15.4375 -15.03125 C 16.25 -14.351562 16.726562 -13.410156 16.875 -12.203125 L 17.96875 -5.65625 L 17.921875 -5.65625 C 18.359375 -5.65625 18.757812 -5.675781 19.125 -5.71875 C 19.414062 -5.75 19.695312 -5.789062 19.96875 -5.84375 C 20.25 -5.90625 20.390625 -5.988281 20.390625 -6.09375 C 20.460938 -8.332031 20.578125 -10.175781 20.734375 -11.625 C 20.898438 -13.070312 21.140625 -14.207031 21.453125 -15.03125 C 21.765625 -15.851562 22.160156 -16.421875 22.640625 -16.734375 C 23.117188 -17.046875 23.6875 -17.203125 24.34375 -17.203125 C 25.1875 -17.203125 25.800781 -16.925781 26.1875 -16.375 C 26.570312 -15.820312 26.765625 -14.90625 26.765625 -13.625 C 26.765625 -11.351562 26.585938 -9.300781 26.234375 -7.46875 C 25.890625 -5.632812 25.414062 -4.054688 24.8125 -2.734375 C 24.207031 -1.421875 23.519531 -0.382812 22.75 0.375 C 21.976562 1.144531 21.15625 1.644531 20.28125 1.875 L 21.921875 5.984375 C 23.347656 5.296875 24.59375 4.726562 25.65625 4.28125 C 26.71875 3.84375 27.6875 3.484375 28.5625 3.203125 C 29.445312 2.929688 30.300781 2.722656 31.125 2.578125 C 31.957031 2.429688 32.882812 2.304688 33.90625 2.203125 Z M 34.515625 -1.921875 "/></g></g></g><g fill="#ecb365" fill-opacity="1"><g transform="translate(266.619761, 227.754023)"><g><path d="M 35.390625 5.875 C 35.171875 7.414062 34.957031 8.609375 34.75 9.453125 C 34.550781 10.296875 34.273438 10.914062 33.921875 11.3125 C 33.578125 11.71875 33.09375 11.957031 32.46875 12.03125 C 31.851562 12.101562 31.015625 12.140625 29.953125 12.140625 L 29.5625 12.140625 C 27.144531 12.066406 25.175781 11.828125 23.65625 11.421875 C 22.132812 11.023438 21.117188 10.382812 20.609375 9.5 L 19.734375 8.078125 C 17.203125 10.390625 14.34375 11.546875 11.15625 11.546875 C 8.1875 11.546875 6.0625 10.484375 4.78125 8.359375 C 1.519531 3.804688 -0.109375 0.453125 -0.109375 -1.703125 C -0.109375 -3.023438 0.015625 -4.1875 0.265625 -5.1875 C 0.523438 -6.195312 0.910156 -7.101562 1.421875 -7.90625 C 1.941406 -8.71875 2.566406 -9.441406 3.296875 -10.078125 C 4.023438 -10.722656 4.882812 -11.359375 5.875 -11.984375 L 4.671875 -14.015625 C 4.378906 -14.421875 4.085938 -14.867188 3.796875 -15.359375 C 3.503906 -15.847656 3.242188 -16.335938 3.015625 -16.828125 C 2.796875 -17.328125 2.613281 -17.785156 2.46875 -18.203125 C 2.320312 -18.628906 2.25 -18.988281 2.25 -19.28125 C 2.25 -20.53125 2.597656 -21.75 3.296875 -22.9375 C 3.992188 -24.132812 4.890625 -25.179688 5.984375 -26.078125 C 7.085938 -26.972656 8.296875 -27.691406 9.609375 -28.234375 C 10.929688 -28.785156 12.195312 -29.0625 13.40625 -29.0625 C 15.675781 -29.0625 17.691406 -28.457031 19.453125 -27.25 C 19.890625 -26.957031 20.539062 -26.332031 21.40625 -25.375 C 22.269531 -24.425781 23.140625 -23.265625 24.015625 -21.890625 C 24.890625 -20.523438 25.644531 -18.972656 26.28125 -17.234375 C 26.925781 -15.492188 27.25 -13.6875 27.25 -11.8125 C 27.21875 -11.632812 27.203125 -11.46875 27.203125 -11.3125 C 27.203125 -11.164062 27.203125 -11.003906 27.203125 -10.828125 L 27.203125 -6.8125 C 27.234375 -6.1875 27.257812 -5.535156 27.28125 -4.859375 C 27.300781 -4.179688 27.347656 -3.476562 27.421875 -2.75 C 29.359375 -2.601562 30.785156 -2.070312 31.703125 -1.15625 Z M 30.109375 0.28125 C 29.492188 -0.34375 26.929688 -0.65625 22.421875 -0.65625 C 22.421875 -0.800781 22.425781 -0.957031 22.4375 -1.125 C 22.457031 -1.289062 22.46875 -1.519531 22.46875 -1.8125 C 22.46875 -2.914062 22.457031 -3.867188 22.4375 -4.671875 C 22.425781 -5.472656 22.410156 -6.320312 22.390625 -7.21875 C 22.367188 -8.125 22.320312 -9.148438 22.25 -10.296875 C 22.175781 -11.453125 22.085938 -12.929688 21.984375 -14.734375 L 21.984375 -15.875 C 21.984375 -19.65625 21.265625 -22.429688 19.828125 -24.203125 C 18.398438 -25.984375 16.257812 -26.875 13.40625 -26.875 C 12.414062 -26.875 11.390625 -26.660156 10.328125 -26.234375 C 9.265625 -25.816406 8.289062 -25.257812 7.40625 -24.5625 C 6.53125 -23.863281 5.816406 -23.054688 5.265625 -22.140625 C 4.722656 -21.222656 4.453125 -20.269531 4.453125 -19.28125 C 4.453125 -19.0625 4.488281 -18.75 4.5625 -18.34375 C 4.632812 -17.945312 4.742188 -17.546875 4.890625 -17.140625 C 5.035156 -16.742188 5.191406 -16.390625 5.359375 -16.078125 C 5.523438 -15.765625 5.695312 -15.570312 5.875 -15.5 L 9.453125 -16.484375 C 9.554688 -20.773438 10.453125 -22.921875 12.140625 -22.921875 C 13.171875 -22.921875 14.113281 -22.726562 14.96875 -22.34375 C 15.832031 -21.957031 16.566406 -21.414062 17.171875 -20.71875 C 17.773438 -20.019531 18.25 -19.191406 18.59375 -18.234375 C 18.945312 -17.285156 19.125 -16.265625 19.125 -15.171875 C 19.125 -14.804688 19.066406 -14.335938 18.953125 -13.765625 C 18.847656 -13.191406 18.710938 -12.628906 18.546875 -12.078125 C 18.378906 -11.535156 18.203125 -11.0625 18.015625 -10.65625 C 17.835938 -10.257812 17.65625 -10.0625 17.46875 -10.0625 C 16.519531 -10.601562 15.632812 -11.066406 14.8125 -11.453125 C 13.988281 -11.835938 13.082031 -12.066406 12.09375 -12.140625 C 11.132812 -12.109375 10.085938 -11.851562 8.953125 -11.375 C 7.816406 -10.894531 6.71875 -10.234375 5.65625 -9.390625 C 5.1875 -9.023438 4.726562 -8.660156 4.28125 -8.296875 C 3.84375 -7.929688 3.457031 -7.445312 3.125 -6.84375 C 2.800781 -6.238281 2.535156 -5.445312 2.328125 -4.46875 C 2.128906 -3.5 2.03125 -2.191406 2.03125 -0.546875 C 2.03125 2.597656 4.007812 4.171875 7.96875 4.171875 C 10.019531 4.171875 11.914062 3.601562 13.65625 2.46875 C 15.394531 1.332031 17 -0.441406 18.46875 -2.859375 C 18.90625 -3.585938 19.234375 -4.132812 19.453125 -4.5 C 19.671875 -4.875 19.816406 -5.0625 19.890625 -5.0625 C 20.078125 -4.757812 20.171875 -4.097656 20.171875 -3.078125 C 20.171875 -1.359375 19.953125 0.875 19.515625 3.625 C 19.984375 4.320312 22.269531 4.707031 26.375 4.78125 L 26.703125 4.78125 C 27.367188 4.78125 27.890625 4.75 28.265625 4.6875 C 28.648438 4.632812 28.953125 4.460938 29.171875 4.171875 C 29.398438 3.878906 29.578125 3.429688 29.703125 2.828125 C 29.828125 2.222656 29.960938 1.375 30.109375 0.28125 Z M 14.390625 -6.484375 C 14.390625 -6.003906 14.160156 -5.441406 13.703125 -4.796875 C 13.253906 -4.160156 12.722656 -3.550781 12.109375 -2.96875 C 11.503906 -2.382812 10.875 -1.890625 10.21875 -1.484375 C 9.5625 -1.078125 9.050781 -0.875 8.6875 -0.875 C 6.851562 -0.875 5.9375 -1.847656 5.9375 -3.796875 C 5.9375 -4.960938 6.578125 -5.910156 7.859375 -6.640625 C 9.140625 -7.378906 10.863281 -7.75 13.03125 -7.75 C 13.25 -7.75 13.53125 -7.601562 13.875 -7.3125 C 14.21875 -7.019531 14.390625 -6.742188 14.390625 -6.484375 Z M 15.390625 -15.609375 C 14.796875 -15.609375 14.300781 -15.296875 13.90625 -14.671875 L 14.015625 -14.234375 C 14.335938 -14.191406 14.65625 -14.097656 14.96875 -13.953125 C 15.28125 -13.804688 15.53125 -13.734375 15.71875 -13.734375 C 15.96875 -13.734375 16.203125 -13.859375 16.421875 -14.109375 C 16.648438 -14.367188 16.765625 -14.613281 16.765625 -14.84375 C 16.765625 -15.351562 16.304688 -15.609375 15.390625 -15.609375 Z M 15.390625 -15.609375 "/></g></g></g><g fill="#ecb365" fill-opacity="1"><g transform="translate(299.699157, 227.754023)"><g><path d="M 27.921875 -11.65625 C 28.765625 -10.695312 29.40625 -9.671875 29.84375 -8.578125 L 32.03125 -4.890625 C 32.625 -3.679688 33.128906 -2.5 33.546875 -1.34375 C 33.972656 -0.1875 34.238281 1.140625 34.34375 2.640625 L 34.34375 2.796875 C 34.34375 3.828125 33.863281 4.992188 32.90625 6.296875 C 31.957031 7.597656 30.675781 8.820312 29.0625 9.96875 C 27.457031 11.125 25.597656 12.101562 23.484375 12.90625 C 21.378906 13.71875 19.191406 14.125 16.921875 14.125 C 14.941406 14.125 12.582031 11.867188 9.84375 7.359375 C 8.957031 7.429688 7.828125 7.566406 6.453125 7.765625 C 5.078125 7.972656 3.476562 8.242188 1.65625 8.578125 C -0.625 5.054688 -1.765625 3.296875 -1.765625 3.296875 C -1.765625 3.148438 -1.734375 2.882812 -1.671875 2.5 C -1.617188 2.113281 -1.554688 1.707031 -1.484375 1.28125 C -1.410156 0.863281 -1.34375 0.472656 -1.28125 0.109375 C -1.226562 -0.253906 -1.203125 -0.472656 -1.203125 -0.546875 C -1.128906 -1.054688 -1.035156 -1.566406 -0.921875 -2.078125 C -0.816406 -2.597656 -0.664062 -3.09375 -0.46875 -3.5625 C -0.269531 -4.039062 0.0078125 -4.472656 0.375 -4.859375 C 0.75 -5.242188 1.210938 -5.566406 1.765625 -5.828125 L 5.765625 -5.828125 L 5.28125 -6.65625 C 4.4375 -7.675781 3.765625 -8.945312 3.265625 -10.46875 C 2.773438 -11.988281 2.53125 -13.519531 2.53125 -15.0625 C 2.53125 -16.59375 2.75 -18.0625 3.1875 -19.46875 C 3.625 -20.882812 4.226562 -22.132812 5 -23.21875 C 5.769531 -24.300781 6.691406 -25.171875 7.765625 -25.828125 C 8.847656 -26.484375 10.050781 -26.8125 11.375 -26.8125 C 12.945312 -26.8125 14.5625 -26.265625 16.21875 -25.171875 L 16.21875 -25.21875 C 16.539062 -25.070312 16.929688 -24.757812 17.390625 -24.28125 C 17.847656 -23.8125 18.332031 -23.335938 18.84375 -22.859375 L 19.171875 -22.53125 C 19.503906 -23.375 19.898438 -24.269531 20.359375 -25.21875 C 20.816406 -26.175781 21.3125 -27.066406 21.84375 -27.890625 C 22.375 -28.710938 22.90625 -29.398438 23.4375 -29.953125 C 23.96875 -30.503906 24.488281 -30.78125 25 -30.78125 L 25.65625 -30.78125 C 25.988281 -30.78125 26.351562 -30.703125 26.75 -30.546875 C 27.15625 -30.398438 27.6875 -30.039062 28.34375 -29.46875 C 29.007812 -28.90625 29.863281 -28.054688 30.90625 -26.921875 C 31.957031 -25.785156 33.269531 -24.226562 34.84375 -22.25 C 33.5625 -20.3125 32.296875 -18.414062 31.046875 -16.5625 C 29.804688 -14.71875 28.765625 -13.082031 27.921875 -11.65625 Z M 29.1875 -2.640625 C 29.070312 -4.066406 28.796875 -5.398438 28.359375 -6.640625 C 27.921875 -7.890625 27.34375 -8.988281 26.625 -9.9375 C 25.90625 -10.894531 25.050781 -11.648438 24.0625 -12.203125 C 23.070312 -12.753906 21.972656 -13.03125 20.765625 -13.03125 L 16.765625 -12.359375 C 15.878906 -12.253906 15.070312 -12.15625 14.34375 -12.0625 C 13.613281 -11.96875 12.972656 -11.921875 12.421875 -11.921875 C 9.117188 -11.921875 7.46875 -13.164062 7.46875 -15.65625 C 7.46875 -18.40625 8.476562 -19.78125 10.5 -19.78125 C 11.664062 -19.78125 13.210938 -19.296875 15.140625 -18.328125 C 17.066406 -17.359375 19.109375 -16.03125 21.265625 -14.34375 C 21.410156 -14.894531 21.722656 -15.632812 22.203125 -16.5625 C 22.679688 -17.5 23.265625 -18.535156 23.953125 -19.671875 C 24.648438 -20.804688 25.410156 -22.003906 26.234375 -23.265625 C 27.054688 -24.535156 27.890625 -25.753906 28.734375 -26.921875 C 27.816406 -27.441406 27.066406 -27.863281 26.484375 -28.1875 C 25.898438 -28.519531 25.40625 -28.6875 25 -28.6875 C 24.851562 -28.6875 24.640625 -28.457031 24.359375 -28 C 24.085938 -27.539062 23.769531 -26.960938 23.40625 -26.265625 C 23.039062 -25.566406 22.664062 -24.804688 22.28125 -23.984375 C 21.894531 -23.160156 21.519531 -22.398438 21.15625 -21.703125 C 20.789062 -21.003906 20.460938 -20.425781 20.171875 -19.96875 C 19.878906 -19.507812 19.675781 -19.28125 19.5625 -19.28125 C 19.488281 -19.28125 19.273438 -19.453125 18.921875 -19.796875 C 18.578125 -20.148438 18.175781 -20.554688 17.71875 -21.015625 C 17.257812 -21.472656 16.789062 -21.921875 16.3125 -22.359375 C 15.84375 -22.804688 15.476562 -23.117188 15.21875 -23.296875 C 13.832031 -24.253906 12.550781 -24.734375 11.375 -24.734375 C 10.425781 -24.734375 9.535156 -24.457031 8.703125 -23.90625 C 7.878906 -23.351562 7.164062 -22.628906 6.5625 -21.734375 C 5.957031 -20.835938 5.488281 -19.8125 5.15625 -18.65625 C 4.832031 -17.5 4.671875 -16.300781 4.671875 -15.0625 C 4.671875 -14.070312 4.769531 -13.085938 4.96875 -12.109375 C 5.175781 -11.140625 5.46875 -10.269531 5.84375 -9.5 C 6.226562 -8.738281 6.6875 -8.117188 7.21875 -7.640625 C 7.75 -7.160156 8.328125 -6.921875 8.953125 -6.921875 C 9.285156 -6.921875 9.679688 -6.984375 10.140625 -7.109375 C 10.597656 -7.242188 11.070312 -7.398438 11.5625 -7.578125 C 12.0625 -7.765625 12.554688 -7.957031 13.046875 -8.15625 C 13.546875 -8.363281 14.015625 -8.539062 14.453125 -8.6875 C 15.398438 -9.007812 16.285156 -9.253906 17.109375 -9.421875 C 17.941406 -9.585938 18.628906 -9.671875 19.171875 -9.671875 C 21.960938 -9.671875 23.359375 -7.894531 23.359375 -4.34375 C 23.359375 -2.363281 22.753906 -0.757812 21.546875 0.46875 C 20.335938 1.695312 18.6875 2.3125 16.59375 2.3125 C 15.53125 2.3125 14.671875 2.238281 14.015625 2.09375 C 13.359375 1.945312 12.800781 1.648438 12.34375 1.203125 C 11.882812 0.765625 11.460938 0.15625 11.078125 -0.625 C 10.691406 -1.414062 10.242188 -2.4375 9.734375 -3.6875 L 2.203125 -3.6875 C 1.722656 -3.425781 1.414062 -2.851562 1.28125 -1.96875 C 1.15625 -1.09375 0.984375 -0.179688 0.765625 0.765625 C 2.597656 0.472656 4.164062 0.253906 5.46875 0.109375 C 6.769531 -0.0351562 7.820312 -0.109375 8.625 -0.109375 C 8.914062 -0.109375 9.242188 -0.0703125 9.609375 0 C 9.609375 4.507812 11.5 6.765625 15.28125 6.765625 C 16.59375 6.765625 18.054688 6.441406 19.671875 5.796875 C 21.285156 5.148438 22.796875 4.359375 24.203125 3.421875 C 25.617188 2.492188 26.800781 1.488281 27.75 0.40625 C 28.707031 -0.664062 29.1875 -1.644531 29.1875 -2.53125 Z M 17.09375 -0.9375 C 16.6875 -0.75 16.300781 -0.59375 15.9375 -0.46875 C 15.570312 -0.34375 15.207031 -0.207031 14.84375 -0.0625 C 15.457031 0.09375 16.039062 0.171875 16.59375 0.171875 C 18.613281 0.171875 19.988281 -0.5625 20.71875 -2.03125 C 20.207031 -1.957031 19.648438 -1.816406 19.046875 -1.609375 C 18.441406 -1.410156 17.789062 -1.1875 17.09375 -0.9375 Z M 32.203125 -4.671875 L 32.03125 -4.890625 C 32.03125 -4.929688 32.019531 -4.957031 32 -4.96875 C 31.988281 -4.988281 31.984375 -5.019531 31.984375 -5.0625 Z M 32.203125 -4.671875 "/></g></g></g><g fill="#ecb365" fill-opacity="1"><g transform="translate(51.433595, 172.745957)"><g><path d="M 21.15625 6.320312 C 18.574219 -5.386719 16.265625 -18.628906 17.585938 -30.882812 C 17.96875 -30.882812 18.355469 -30.9375 18.738281 -30.9375 C 20.9375 -30.9375 20.113281 -35.222656 18.464844 -36.433594 C 18.519531 -36.761719 18.574219 -37.148438 18.683594 -37.53125 C 19.234375 -40.003906 13.351562 -39.949219 12.859375 -37.863281 C 12.75 -37.421875 12.695312 -36.984375 12.585938 -36.488281 C 8.847656 -36.214844 5.164062 -35.554688 1.648438 -34.34375 C -0.496094 -33.574219 1.539062 -27.859375 3.738281 -28.628906 C 6.320312 -29.5625 8.957031 -30.113281 11.648438 -30.445312 C 10.714844 -21.265625 11.703125 -11.59375 13.351562 -2.417969 C 11.320312 -3.515625 9.066406 -4.175781 6.703125 -4.285156 C 9.011719 -9.78125 8.628906 -16.265625 6.757812 -21.816406 C 5.988281 -24.015625 0.164062 -23.191406 0.824219 -21.265625 C 2.914062 -15.167969 3.1875 -8.1875 -0.164062 -2.472656 C -1.207031 -0.660156 2.914062 -0.550781 3.625 -0.769531 C 9.121094 -2.199219 13.296875 2.914062 15.332031 7.253906 C 15.769531 8.078125 17.089844 8.351562 18.410156 8.242188 C 19.894531 8.132812 21.375 7.417969 21.15625 6.320312 Z M 21.15625 6.320312 "/></g></g></g><g fill="#ecb365" fill-opacity="1"><g transform="translate(70.226212, 172.745957)"><g><path d="M 27.476562 -1.8125 C 25.882812 -5.332031 24.398438 -8.902344 23.078125 -12.527344 C 23.300781 -12.585938 23.519531 -12.695312 23.792969 -12.75 C 25.828125 -13.519531 26.15625 -19.507812 23.90625 -18.683594 C 23.023438 -18.355469 22.199219 -18.023438 21.265625 -17.75 C 19.125 -24.617188 17.476562 -31.707031 16.652344 -38.960938 C 16.539062 -40.003906 15.167969 -40.445312 13.792969 -40.390625 C 12.253906 -40.5 10.550781 -39.949219 10.332031 -38.90625 C 8.847656 -30.167969 6.320312 -21.871094 3.023438 -13.847656 C 2.691406 -13.847656 2.363281 -13.792969 2.089844 -13.738281 C 0.496094 -13.519531 -0.273438 -9.945312 0.660156 -8.460938 C -0.496094 -6.042969 -1.648438 -3.683594 -2.914062 -1.320312 C -4.011719 0.714844 1.867188 0.988281 2.859375 -0.933594 C 4.230469 -3.460938 5.441406 -5.988281 6.648438 -8.574219 C 10.277344 -9.175781 13.957031 -9.890625 17.53125 -10.824219 C 18.847656 -7.308594 20.277344 -3.847656 21.816406 -0.441406 C 22.695312 1.484375 28.519531 0.496094 27.476562 -1.8125 Z M 9.398438 -14.890625 C 10.769531 -18.355469 11.980469 -21.925781 13.023438 -25.496094 C 13.792969 -22.367188 14.671875 -19.289062 15.660156 -16.210938 C 13.574219 -15.714844 11.484375 -15.277344 9.398438 -14.890625 Z M 9.398438 -14.890625 "/></g></g></g><g fill="#ecb365" fill-opacity="1"><g transform="translate(94.843436, 172.745957)"><g><path d="M 22.089844 -16.871094 C 22.476562 -17.53125 21.707031 -18.1875 21.15625 -18.410156 C 18.847656 -19.34375 16.375 -19.507812 13.957031 -19.289062 C 15.003906 -20.058594 16.046875 -20.9375 16.980469 -21.816406 C 20.167969 -24.785156 26.101562 -31.542969 23.464844 -36.324219 C 21.429688 -40.058594 15.992188 -40.664062 12.199219 -39.839844 C 9.726562 -39.292969 7.636719 -38.027344 5.933594 -36.433594 C 5.824219 -37.148438 5.714844 -37.917969 5.605469 -38.632812 C 5.21875 -40.882812 -0.714844 -40.28125 -0.328125 -38.136719 C 0.273438 -34.566406 0.550781 -30.882812 0.769531 -27.257812 C 0.878906 -25.496094 4.617188 -25.441406 6.101562 -26.597656 C 6.101562 -26.652344 6.15625 -26.652344 6.15625 -26.652344 C 6.429688 -26.871094 6.59375 -27.148438 6.648438 -27.421875 C 7.691406 -30.882812 9.945312 -36.378906 14.179688 -36.816406 C 16.375 -37.039062 18.355469 -35.335938 18.1875 -33.136719 C 17.859375 -28.738281 13.132812 -23.960938 9.835938 -21.429688 C 8.902344 -20.71875 7.914062 -20.003906 6.925781 -19.398438 C 6.925781 -20.058594 6.925781 -20.71875 6.925781 -21.375 C 6.867188 -23.574219 0.988281 -23.191406 0.988281 -20.882812 C 1.042969 -14.179688 0.660156 -7.472656 -0.109375 -0.824219 C -0.382812 1.207031 5.496094 0.988281 5.824219 -1.375 C 6.265625 -5.332031 6.59375 -9.34375 6.757812 -13.351562 C 9.121094 -14.617188 12.75 -16.210938 15.605469 -16.046875 C 11.648438 -8.40625 11.320312 1.152344 16.375 8.519531 C 17.585938 10.277344 23.355469 9.066406 21.980469 7.144531 C 16.980469 -0.164062 17.75 -9.507812 22.089844 -16.871094 Z M 22.089844 -16.871094 "/></g></g></g><g fill="#ecb365" fill-opacity="1"><g transform="translate(118.031979, 172.745957)"><g><path d="M 22.089844 -16.871094 C 22.476562 -17.53125 21.707031 -18.1875 21.15625 -18.410156 C 18.847656 -19.34375 16.375 -19.507812 13.957031 -19.289062 C 15.003906 -20.058594 16.046875 -20.9375 16.980469 -21.816406 C 20.167969 -24.785156 26.101562 -31.542969 23.464844 -36.324219 C 21.429688 -40.058594 15.992188 -40.664062 12.199219 -39.839844 C 9.726562 -39.292969 7.636719 -38.027344 5.933594 -36.433594 C 5.824219 -37.148438 5.714844 -37.917969 5.605469 -38.632812 C 5.21875 -40.882812 -0.714844 -40.28125 -0.328125 -38.136719 C 0.273438 -34.566406 0.550781 -30.882812 0.769531 -27.257812 C 0.878906 -25.496094 4.617188 -25.441406 6.101562 -26.597656 C 6.101562 -26.652344 6.15625 -26.652344 6.15625 -26.652344 C 6.429688 -26.871094 6.59375 -27.148438 6.648438 -27.421875 C 7.691406 -30.882812 9.945312 -36.378906 14.179688 -36.816406 C 16.375 -37.039062 18.355469 -35.335938 18.1875 -33.136719 C 17.859375 -28.738281 13.132812 -23.960938 9.835938 -21.429688 C 8.902344 -20.71875 7.914062 -20.003906 6.925781 -19.398438 C 6.925781 -20.058594 6.925781 -20.71875 6.925781 -21.375 C 6.867188 -23.574219 0.988281 -23.191406 0.988281 -20.882812 C 1.042969 -14.179688 0.660156 -7.472656 -0.109375 -0.824219 C -0.382812 1.207031 5.496094 0.988281 5.824219 -1.375 C 6.265625 -5.332031 6.59375 -9.34375 6.757812 -13.351562 C 9.121094 -14.617188 12.75 -16.210938 15.605469 -16.046875 C 11.648438 -8.40625 11.320312 1.152344 16.375 8.519531 C 17.585938 10.277344 23.355469 9.066406 21.980469 7.144531 C 16.980469 -0.164062 17.75 -9.507812 22.089844 -16.871094 Z M 22.089844 -16.871094 "/></g></g></g><g fill="#ecb365" fill-opacity="1"><g transform="translate(141.220523, 172.745957)"><g><path d="M 23.246094 -17.96875 C 23.023438 -20.222656 17.089844 -19.726562 17.308594 -17.476562 C 17.585938 -14.121094 18.738281 -8.792969 17.421875 -5.550781 C 15.992188 -1.8125 10.109375 -1.8125 7.199219 -5 C 0.769531 -11.871094 7.472656 -21.707031 14.617188 -24.125 C 17.695312 -25.167969 14.726562 -27.148438 12.859375 -27.035156 C 9.671875 -26.816406 5.277344 -26.980469 7.472656 -31.15625 C 7.96875 -32.09375 10.824219 -35.058594 11.816406 -34.894531 C 12.75 -34.730469 13.738281 -32.75 14.289062 -31.925781 C 15.222656 -30.445312 15.992188 -28.683594 16.484375 -26.980469 C 16.484375 -25.609375 18.957031 -25.277344 20.71875 -25.828125 C 21.816406 -26.101562 22.695312 -26.707031 22.421875 -27.53125 C 22.476562 -30.828125 22.640625 -35.058594 23.191406 -37.972656 C 23.628906 -40.445312 17.75 -40.335938 17.363281 -38.300781 C 17.253906 -37.585938 17.144531 -36.816406 17.035156 -36.050781 C 13.132812 -39.234375 7.96875 -39.179688 3.078125 -33.464844 C -1.484375 -28.027344 1.867188 -25.332031 6.429688 -24.289062 C 2.636719 -21.816406 -0.21875 -18.132812 -0.878906 -13.296875 C -1.59375 -8.242188 0.496094 -2.914062 5.277344 -0.605469 C 9.453125 1.429688 19.234375 0.933594 22.367188 -2.859375 C 25.167969 -6.265625 23.574219 -14.289062 23.246094 -17.96875 Z M 16.707031 -22.804688 C 16.761719 -22.421875 16.816406 -21.980469 16.871094 -21.542969 C 17.089844 -19.289062 23.023438 -19.835938 22.804688 -22.089844 C 22.75 -22.476562 22.695312 -22.914062 22.640625 -23.355469 C 22.421875 -25.609375 16.484375 -25.058594 16.707031 -22.804688 Z M 16.707031 -22.804688 "/></g></g></g><g fill="#ecb365" fill-opacity="1"><g transform="translate(165.013509, 172.745957)"><g><path d="M 21.265625 -15.167969 C 17.695312 -16.925781 16.816406 -21.320312 16.871094 -24.894531 C 16.925781 -27.035156 10.992188 -26.707031 10.9375 -24.398438 C 10.878906 -20.496094 12.089844 -16.761719 14.78125 -14.234375 C 10.992188 -12.585938 7.75 -9.726562 5.109375 -6.320312 C 6.210938 -17.253906 8.957031 -28.410156 11.761719 -38.578125 C 12.417969 -40.996094 6.484375 -40.996094 5.933594 -38.960938 C 2.144531 -25.003906 -1.703125 -8.847656 -1.265625 5.714844 C -1.152344 7.859375 4.339844 7.527344 4.671875 5.441406 C 4.671875 5.386719 4.726562 5.332031 4.78125 5.21875 C 7.308594 -1.484375 12.308594 -10.714844 20.167969 -12.308594 C 21.707031 -12.640625 23.136719 -14.179688 21.265625 -15.167969 Z M 21.265625 -15.167969 "/></g></g></g><g fill="#ecb365" fill-opacity="1"><g transform="translate(122.343747, 270.00136)"><g><path d="M 6.003906 -10.46875 C 5.933594 -11.042969 4.421875 -10.902344 4.492188 -10.328125 C 4.800781 -7.808594 4.84375 -5.304688 4.589844 -2.785156 C 4.074219 -4.367188 3.847656 -6.085938 3.792969 -7.695312 C 3.792969 -8.003906 3.34375 -8.101562 2.9375 -8.046875 C 2.644531 -8.019531 2.363281 -7.894531 2.308594 -7.683594 C 2.308594 -7.667969 2.308594 -7.65625 2.296875 -7.65625 C 1.945312 -6.226562 1.679688 -4.785156 1.484375 -3.316406 C 1.386719 -4.519531 1.398438 -5.722656 1.496094 -6.941406 C 1.539062 -7.472656 0.0429688 -7.402344 -0.015625 -6.800781 C -0.25 -3.875 0.0273438 -1.007812 1.078125 1.734375 C 1.089844 1.847656 1.148438 1.929688 1.246094 1.988281 C 1.246094 1.988281 1.257812 2 1.257812 2 C 1.289062 2.015625 1.300781 2.015625 1.316406 2.027344 C 1.652344 2.183594 2.296875 2.085938 2.503906 1.820312 C 2.519531 1.804688 2.519531 1.804688 2.519531 1.792969 C 2.53125 1.792969 2.53125 1.777344 2.53125 1.777344 C 2.574219 1.722656 2.589844 1.664062 2.589844 1.59375 C 2.632812 0.0429688 2.742188 -1.527344 2.953125 -3.09375 C 3.246094 -2.027344 3.667969 -1.023438 4.253906 -0.140625 C 4.308594 -0.0429688 4.421875 0.015625 4.546875 0.0546875 C 4.96875 0.222656 5.695312 0.0976562 5.75 -0.265625 C 6.3125 -3.652344 6.421875 -7.054688 6.003906 -10.46875 Z M 0.910156 -7.53125 C 1.203125 -7.542969 1.582031 -7.667969 1.625 -8.003906 C 1.707031 -8.566406 1.804688 -9.140625 1.960938 -9.699219 C 2.113281 -10.3125 0.617188 -10.3125 0.476562 -9.78125 C 0.308594 -9.152344 0.210938 -8.507812 0.113281 -7.863281 C 0.0703125 -7.558594 0.726562 -7.5 0.910156 -7.53125 Z M 0.910156 -7.53125 "/></g></g></g><g fill="#ecb365" fill-opacity="1"><g transform="translate(128.54229, 270.00136)"><g><path d="M 5.917969 -4.578125 C 5.863281 -5.148438 4.351562 -5.023438 4.410156 -4.449219 C 4.476562 -3.597656 4.773438 -2.238281 4.4375 -1.414062 C 4.074219 -0.460938 2.574219 -0.460938 1.832031 -1.273438 C 0.195312 -3.023438 1.902344 -5.527344 3.722656 -6.144531 C 4.507812 -6.410156 3.75 -6.914062 3.273438 -6.886719 C 2.464844 -6.828125 1.34375 -6.871094 1.902344 -7.933594 C 2.027344 -8.171875 2.757812 -8.929688 3.007812 -8.886719 C 3.246094 -8.84375 3.5 -8.339844 3.640625 -8.132812 C 3.875 -7.753906 4.074219 -7.304688 4.199219 -6.871094 C 4.199219 -6.523438 4.828125 -6.4375 5.277344 -6.578125 C 5.554688 -6.648438 5.78125 -6.800781 5.710938 -7.011719 C 5.722656 -7.851562 5.765625 -8.929688 5.90625 -9.671875 C 6.019531 -10.300781 4.519531 -10.273438 4.421875 -9.753906 C 4.394531 -9.574219 4.367188 -9.375 4.339844 -9.179688 C 3.34375 -9.992188 2.027344 -9.976562 0.785156 -8.523438 C -0.378906 -7.136719 0.476562 -6.453125 1.636719 -6.1875 C 0.671875 -5.554688 -0.0546875 -4.617188 -0.222656 -3.386719 C -0.40625 -2.097656 0.125 -0.742188 1.34375 -0.152344 C 2.40625 0.363281 4.898438 0.238281 5.695312 -0.726562 C 6.410156 -1.59375 6.003906 -3.640625 5.917969 -4.578125 Z M 4.253906 -5.808594 C 4.269531 -5.710938 4.28125 -5.597656 4.296875 -5.484375 C 4.351562 -4.914062 5.863281 -5.050781 5.808594 -5.625 C 5.792969 -5.722656 5.78125 -5.835938 5.765625 -5.949219 C 5.710938 -6.523438 4.199219 -6.382812 4.253906 -5.808594 Z M 4.253906 -5.808594 "/></g></g></g><g fill="#ecb365" fill-opacity="1"><g transform="translate(134.600906, 270.00136)"><g><path d="M 3.667969 -6.128906 C 4.8125 -6.367188 5.917969 -6.898438 5.542969 -8.003906 C 5.136719 -9.195312 3.429688 -10.089844 2.226562 -9.878906 C 2.027344 -9.839844 1.863281 -9.78125 1.707031 -9.710938 C 1.695312 -9.78125 1.695312 -9.851562 1.695312 -9.921875 C 1.652344 -10.480469 0.152344 -10.371094 0.183594 -9.78125 C 0.335938 -7.25 0.292969 -4.703125 0.0976562 -2.167969 C 0.0546875 -1.636719 1.554688 -1.707031 1.59375 -2.296875 C 1.695312 -3.484375 1.75 -4.675781 1.777344 -5.863281 C 3.007812 -5.457031 4.058594 -4.589844 4.519531 -3.34375 C 5.136719 -1.664062 4.269531 -0.65625 2.671875 -0.882812 C 3.5 -1.59375 4.003906 -2.574219 3.804688 -3.777344 C 3.722656 -4.367188 2.210938 -4.199219 2.296875 -3.652344 C 2.464844 -2.699219 2.167969 -1.847656 1.414062 -1.246094 C 1.191406 -1.0625 0.9375 -0.910156 0.671875 -0.785156 C 0.558594 -0.726562 0.0703125 -0.558594 0.378906 -0.644531 C -0.585938 -0.351562 0.125 0.335938 0.855469 0.113281 C 1.105469 0.0429688 1.34375 -0.0546875 1.582031 -0.183594 C 3.402344 0.28125 5.851562 0.351562 6.214844 -1.945312 C 6.507812 -3.792969 5.21875 -5.277344 3.667969 -6.128906 Z M 1.792969 -6.84375 C 1.761719 -7.878906 2.113281 -9.347656 3.429688 -8.496094 C 4.003906 -8.117188 4.351562 -7.5 3.75 -7.082031 C 3.289062 -6.746094 2.351562 -6.773438 1.777344 -6.757812 C 1.777344 -6.773438 1.777344 -6.773438 1.777344 -6.773438 C 1.777344 -6.800781 1.792969 -6.816406 1.792969 -6.84375 Z M 1.792969 -6.84375 "/></g></g></g><g fill="#ecb365" fill-opacity="1"><g transform="translate(144.409431, 270.00136)"><g><path d="M 1.398438 -9.78125 C 1.21875 -9.808594 1.050781 -9.78125 0.894531 -9.710938 C 0.644531 -9.640625 0.449219 -9.488281 0.488281 -9.277344 C 0.671875 -8.410156 0.742188 -7.515625 0.785156 -6.621094 C 0.8125 -6.058594 2.324219 -6.171875 2.296875 -6.757812 C 2.265625 -7.363281 2.226562 -7.976562 2.140625 -8.578125 C 3.609375 -7.753906 4.6875 -5.738281 4.996094 -4.296875 C 5.207031 -3.332031 5.289062 -1.890625 4.589844 -1.105469 C 3.765625 -0.183594 2.546875 -0.839844 1.804688 -1.625 C 2.097656 -2.757812 2.253906 -3.933594 2.308594 -5.121094 C 2.335938 -5.667969 0.824219 -5.585938 0.796875 -4.996094 C 0.753906 -4.085938 0.644531 -3.191406 0.460938 -2.324219 C 0.0820312 -2.238281 -0.210938 -2.042969 -0.0429688 -1.777344 C 0.0429688 -1.652344 0.140625 -1.527344 0.238281 -1.414062 C 0.152344 -1.089844 0.0546875 -0.785156 -0.0546875 -0.476562 C -0.28125 0.0976562 1.21875 0.125 1.414062 -0.390625 C 1.425781 -0.40625 1.425781 -0.417969 1.425781 -0.449219 C 3.371094 0.644531 6.058594 0.335938 6.550781 -2.28125 C 7.152344 -5.429688 4.660156 -9.375 1.398438 -9.78125 Z M 1.398438 -9.78125 "/></g></g></g><g fill="#ecb365" fill-opacity="1"><g transform="translate(150.985755, 270.00136)"><g><path d="M 5.917969 -4.578125 C 5.863281 -5.148438 4.351562 -5.023438 4.410156 -4.449219 C 4.476562 -3.597656 4.773438 -2.238281 4.4375 -1.414062 C 4.074219 -0.460938 2.574219 -0.460938 1.832031 -1.273438 C 0.195312 -3.023438 1.902344 -5.527344 3.722656 -6.144531 C 4.507812 -6.410156 3.75 -6.914062 3.273438 -6.886719 C 2.464844 -6.828125 1.34375 -6.871094 1.902344 -7.933594 C 2.027344 -8.171875 2.757812 -8.929688 3.007812 -8.886719 C 3.246094 -8.84375 3.5 -8.339844 3.640625 -8.132812 C 3.875 -7.753906 4.074219 -7.304688 4.199219 -6.871094 C 4.199219 -6.523438 4.828125 -6.4375 5.277344 -6.578125 C 5.554688 -6.648438 5.78125 -6.800781 5.710938 -7.011719 C 5.722656 -7.851562 5.765625 -8.929688 5.90625 -9.671875 C 6.019531 -10.300781 4.519531 -10.273438 4.421875 -9.753906 C 4.394531 -9.574219 4.367188 -9.375 4.339844 -9.179688 C 3.34375 -9.992188 2.027344 -9.976562 0.785156 -8.523438 C -0.378906 -7.136719 0.476562 -6.453125 1.636719 -6.1875 C 0.671875 -5.554688 -0.0546875 -4.617188 -0.222656 -3.386719 C -0.40625 -2.097656 0.125 -0.742188 1.34375 -0.152344 C 2.40625 0.363281 4.898438 0.238281 5.695312 -0.726562 C 6.410156 -1.59375 6.003906 -3.640625 5.917969 -4.578125 Z M 4.253906 -5.808594 C 4.269531 -5.710938 4.28125 -5.597656 4.296875 -5.484375 C 4.351562 -4.914062 5.863281 -5.050781 5.808594 -5.625 C 5.792969 -5.722656 5.78125 -5.835938 5.765625 -5.949219 C 5.710938 -6.523438 4.199219 -6.382812 4.253906 -5.808594 Z M 4.253906 -5.808594 "/></g></g></g><g fill="#ecb365" fill-opacity="1"><g transform="translate(157.044371, 270.00136)"><g><path d="M 6.464844 -3.484375 C 6.019531 -4.996094 4.828125 -5.613281 3.539062 -6.285156 C 2.855469 -6.632812 0.714844 -7.628906 1.441406 -8.804688 C 2.097656 -9.878906 3.554688 -7.304688 3.847656 -6.632812 C 3.863281 -6.535156 3.917969 -6.464844 4.003906 -6.410156 C 4.015625 -6.410156 4.03125 -6.394531 4.042969 -6.382812 C 4.058594 -6.382812 4.058594 -6.382812 4.074219 -6.367188 C 4.378906 -6.226562 4.914062 -6.296875 5.179688 -6.507812 C 5.179688 -6.507812 5.191406 -6.523438 5.191406 -6.523438 C 5.207031 -6.535156 5.21875 -6.550781 5.234375 -6.5625 C 5.289062 -6.632812 5.332031 -6.703125 5.332031 -6.800781 C 5.347656 -7.765625 5.5 -8.761719 5.851562 -9.671875 C 6.074219 -10.230469 4.589844 -10.257812 4.394531 -9.753906 C 4.28125 -9.460938 4.183594 -9.140625 4.113281 -8.816406 C 3.316406 -9.710938 2.238281 -10.328125 1.0625 -9.910156 C -0.265625 -9.433594 -0.40625 -7.992188 0.417969 -6.984375 C 1.148438 -6.085938 2.253906 -5.851562 3.203125 -5.304688 C 4.855469 -4.367188 5.585938 -2.601562 4.855469 -0.753906 C 4.378906 0.460938 2.671875 1.539062 1.761719 0.0703125 C 1.457031 -0.40625 1.398438 -1.089844 1.441406 -1.652344 C 1.484375 -2.210938 1.722656 -3.527344 2.5625 -3.441406 C 3.554688 -3.34375 2.617188 -1.792969 2.265625 -1.46875 C 1.761719 -1.007812 3.21875 -0.824219 3.582031 -1.175781 C 5.542969 -2.996094 3.457031 -5.25 1.300781 -4.058594 C -0.894531 -2.839844 -0.351562 0.9375 1.960938 1.664062 C 4.96875 2.601562 7.25 -0.796875 6.464844 -3.484375 Z M 6.464844 -3.484375 "/></g></g></g><g fill="#ecb365" fill-opacity="1"><g transform="translate(163.592714, 270.00136)"><g><path d="M 0 -5.136719 C 0 -3.5 0.0273438 -1.863281 0.0976562 -0.222656 C 0.125 0.335938 1.636719 0.222656 1.609375 -0.351562 C 1.539062 -1.988281 1.511719 -3.625 1.496094 -5.277344 C 1.496094 -5.820312 -0.015625 -5.722656 0 -5.136719 Z M 0.222656 -9.320312 C 0.0546875 -8.367188 0.015625 -7.402344 0 -6.4375 C -0.015625 -5.890625 1.496094 -5.976562 1.511719 -6.5625 C 1.527344 -7.222656 1.554688 -7.894531 1.609375 -8.535156 C 1.625 -8.71875 1.652344 -8.902344 1.679688 -9.082031 C 1.679688 -9.167969 1.695312 -9.265625 1.695312 -9.222656 C 1.804688 -9.867188 0.308594 -9.839844 0.222656 -9.320312 Z M 0.222656 -9.320312 "/></g></g></g><g fill="#ecb365" fill-opacity="1"><g transform="translate(165.29976, 270.00136)"><g><path d="M 7.136719 -4.605469 C 6.660156 -6.480469 4.96875 -7.375 3.121094 -7.011719 C 2.867188 -6.96875 2.519531 -6.757812 2.644531 -6.464844 C 2.9375 -5.792969 3.066406 -5.136719 3.164062 -4.410156 C 3.234375 -3.835938 4.730469 -3.972656 4.660156 -4.535156 C 4.589844 -5.09375 4.476562 -5.625 4.308594 -6.144531 C 4.714844 -5.960938 5.121094 -5.640625 5.347656 -5.25 C 5.75 -4.5625 5.917969 -3.511719 5.765625 -2.730469 C 5.5 -1.273438 3.652344 -0.25 2.378906 -1.246094 C 0.824219 -2.464844 1.511719 -5.75 2.085938 -7.25 C 2.449219 -8.214844 4.578125 -11.015625 4.757812 -8.171875 C 4.785156 -7.613281 6.285156 -7.738281 6.242188 -8.3125 C 6.085938 -10.707031 3.289062 -10.636719 1.890625 -9.335938 C -0.183594 -7.417969 -1.246094 -1.707031 1.847656 -0.238281 C 4.828125 1.175781 7.921875 -1.539062 7.136719 -4.605469 Z M 2.519531 -1.820312 C 2.8125 -1.679688 3.316406 -1.695312 3.582031 -1.902344 C 4.03125 -2.265625 4.367188 -2.714844 4.535156 -3.273438 C 4.714844 -3.875 3.234375 -3.875 3.078125 -3.359375 C 2.96875 -2.980469 2.785156 -2.644531 2.476562 -2.394531 C 2.238281 -2.210938 2.226562 -1.945312 2.519531 -1.820312 Z M 2.519531 -1.820312 "/></g></g></g><g fill="#ecb365" fill-opacity="1"><g transform="translate(172.491742, 270.00136)"><g><path d="M 4.605469 -6.859375 C 4.578125 -5.417969 4.535156 -3.972656 4.476562 -2.53125 C 3.640625 -5.011719 2.574219 -7.445312 1.398438 -9.753906 C 1.246094 -10.203125 0.0273438 -10.105469 -0.0820312 -9.640625 C -0.0820312 -9.628906 -0.0820312 -9.613281 -0.0820312 -9.601562 C -0.0820312 -9.585938 -0.0820312 -9.574219 -0.0820312 -9.542969 C 0.167969 -6.5625 0.25 -3.511719 -0.0820312 -0.53125 C -0.152344 -0.015625 1.359375 -0.0546875 1.414062 -0.65625 C 1.625 -2.363281 1.664062 -4.101562 1.636719 -5.835938 C 2.742188 -3.234375 3.667969 -0.53125 4.226562 2.238281 C 4.199219 2.492188 4.535156 2.601562 4.882812 2.589844 C 5.316406 2.601562 5.792969 2.40625 5.722656 2.097656 C 5.933594 -0.921875 6.046875 -3.960938 6.117188 -6.996094 C 6.128906 -7.542969 4.617188 -7.460938 4.605469 -6.859375 Z M 4.632812 -9.976562 C 4.632812 -9.363281 4.632812 -8.746094 4.632812 -8.117188 C 4.617188 -7.570312 6.128906 -7.65625 6.128906 -8.257812 C 6.144531 -8.871094 6.144531 -9.488281 6.144531 -10.117188 C 6.144531 -10.664062 4.632812 -10.582031 4.632812 -9.976562 Z M 4.632812 -9.976562 "/></g></g></g><g fill="#ecb365" fill-opacity="1"><g transform="translate(182.202317, 270.00136)"><g><path d="M 3.34375 -10.640625 L 4.375 -10.640625 L 4.375 3.375 L 3.34375 3.375 Z M 3.34375 -10.640625 "/></g></g></g><g fill="#ecb365" fill-opacity="1"><g transform="translate(193.535995, 270.00136)"><g><path d="M 1.398438 -9.78125 C 1.21875 -9.808594 1.050781 -9.78125 0.894531 -9.710938 C 0.644531 -9.640625 0.449219 -9.488281 0.488281 -9.277344 C 0.671875 -8.410156 0.742188 -7.515625 0.785156 -6.621094 C 0.8125 -6.058594 2.324219 -6.171875 2.296875 -6.757812 C 2.265625 -7.363281 2.226562 -7.976562 2.140625 -8.578125 C 3.609375 -7.753906 4.6875 -5.738281 4.996094 -4.296875 C 5.207031 -3.332031 5.289062 -1.890625 4.589844 -1.105469 C 3.765625 -0.183594 2.546875 -0.839844 1.804688 -1.625 C 2.097656 -2.757812 2.253906 -3.933594 2.308594 -5.121094 C 2.335938 -5.667969 0.824219 -5.585938 0.796875 -4.996094 C 0.753906 -4.085938 0.644531 -3.191406 0.460938 -2.324219 C 0.0820312 -2.238281 -0.210938 -2.042969 -0.0429688 -1.777344 C 0.0429688 -1.652344 0.140625 -1.527344 0.238281 -1.414062 C 0.152344 -1.089844 0.0546875 -0.785156 -0.0546875 -0.476562 C -0.28125 0.0976562 1.21875 0.125 1.414062 -0.390625 C 1.425781 -0.40625 1.425781 -0.417969 1.425781 -0.449219 C 3.371094 0.644531 6.058594 0.335938 6.550781 -2.28125 C 7.152344 -5.429688 4.660156 -9.375 1.398438 -9.78125 Z M 1.398438 -9.78125 "/></g></g></g><g fill="#ecb365" fill-opacity="1"><g transform="translate(200.112319, 270.00136)"><g><path d="M 5.917969 -4.578125 C 5.863281 -5.148438 4.351562 -5.023438 4.410156 -4.449219 C 4.476562 -3.597656 4.773438 -2.238281 4.4375 -1.414062 C 4.074219 -0.460938 2.574219 -0.460938 1.832031 -1.273438 C 0.195312 -3.023438 1.902344 -5.527344 3.722656 -6.144531 C 4.507812 -6.410156 3.75 -6.914062 3.273438 -6.886719 C 2.464844 -6.828125 1.34375 -6.871094 1.902344 -7.933594 C 2.027344 -8.171875 2.757812 -8.929688 3.007812 -8.886719 C 3.246094 -8.84375 3.5 -8.339844 3.640625 -8.132812 C 3.875 -7.753906 4.074219 -7.304688 4.199219 -6.871094 C 4.199219 -6.523438 4.828125 -6.4375 5.277344 -6.578125 C 5.554688 -6.648438 5.78125 -6.800781 5.710938 -7.011719 C 5.722656 -7.851562 5.765625 -8.929688 5.90625 -9.671875 C 6.019531 -10.300781 4.519531 -10.273438 4.421875 -9.753906 C 4.394531 -9.574219 4.367188 -9.375 4.339844 -9.179688 C 3.34375 -9.992188 2.027344 -9.976562 0.785156 -8.523438 C -0.378906 -7.136719 0.476562 -6.453125 1.636719 -6.1875 C 0.671875 -5.554688 -0.0546875 -4.617188 -0.222656 -3.386719 C -0.40625 -2.097656 0.125 -0.742188 1.34375 -0.152344 C 2.40625 0.363281 4.898438 0.238281 5.695312 -0.726562 C 6.410156 -1.59375 6.003906 -3.640625 5.917969 -4.578125 Z M 4.253906 -5.808594 C 4.269531 -5.710938 4.28125 -5.597656 4.296875 -5.484375 C 4.351562 -4.914062 5.863281 -5.050781 5.808594 -5.625 C 5.792969 -5.722656 5.78125 -5.835938 5.765625 -5.949219 C 5.710938 -6.523438 4.199219 -6.382812 4.253906 -5.808594 Z M 4.253906 -5.808594 "/></g></g></g><g fill="#ecb365" fill-opacity="1"><g transform="translate(206.170935, 270.00136)"><g><path d="M 4.578125 -9.65625 C 4.578125 -10.214844 3.066406 -10.117188 3.066406 -9.53125 C 3.050781 -7.695312 3.09375 -3.792969 2.085938 -1.636719 C 1.257812 -4.183594 1.300781 -7.09375 1.652344 -9.65625 C 1.734375 -10.175781 0.238281 -10.117188 0.152344 -9.53125 C -0.28125 -6.453125 -0.222656 -2.996094 1.105469 -0.113281 C 1.289062 0.28125 2.308594 0.195312 2.53125 -0.183594 C 4.757812 -2.140625 4.546875 -7.152344 4.578125 -9.65625 Z M 4.578125 -9.65625 "/></g></g></g><g fill="#ecb365" fill-opacity="1"><g transform="translate(210.676417, 270.00136)"><g><path d="M 5.917969 -4.578125 C 5.863281 -5.148438 4.351562 -5.023438 4.410156 -4.449219 C 4.476562 -3.597656 4.773438 -2.238281 4.4375 -1.414062 C 4.074219 -0.460938 2.574219 -0.460938 1.832031 -1.273438 C 0.195312 -3.023438 1.902344 -5.527344 3.722656 -6.144531 C 4.507812 -6.410156 3.75 -6.914062 3.273438 -6.886719 C 2.464844 -6.828125 1.34375 -6.871094 1.902344 -7.933594 C 2.027344 -8.171875 2.757812 -8.929688 3.007812 -8.886719 C 3.246094 -8.84375 3.5 -8.339844 3.640625 -8.132812 C 3.875 -7.753906 4.074219 -7.304688 4.199219 -6.871094 C 4.199219 -6.523438 4.828125 -6.4375 5.277344 -6.578125 C 5.554688 -6.648438 5.78125 -6.800781 5.710938 -7.011719 C 5.722656 -7.851562 5.765625 -8.929688 5.90625 -9.671875 C 6.019531 -10.300781 4.519531 -10.273438 4.421875 -9.753906 C 4.394531 -9.574219 4.367188 -9.375 4.339844 -9.179688 C 3.34375 -9.992188 2.027344 -9.976562 0.785156 -8.523438 C -0.378906 -7.136719 0.476562 -6.453125 1.636719 -6.1875 C 0.671875 -5.554688 -0.0546875 -4.617188 -0.222656 -3.386719 C -0.40625 -2.097656 0.125 -0.742188 1.34375 -0.152344 C 2.40625 0.363281 4.898438 0.238281 5.695312 -0.726562 C 6.410156 -1.59375 6.003906 -3.640625 5.917969 -4.578125 Z M 4.253906 -5.808594 C 4.269531 -5.710938 4.28125 -5.597656 4.296875 -5.484375 C 4.351562 -4.914062 5.863281 -5.050781 5.808594 -5.625 C 5.792969 -5.722656 5.78125 -5.835938 5.765625 -5.949219 C 5.710938 -6.523438 4.199219 -6.382812 4.253906 -5.808594 Z M 4.253906 -5.808594 "/></g></g></g><g fill="#ecb365" fill-opacity="1"><g transform="translate(216.735033, 270.00136)"><g><path d="M 5.417969 -3.863281 C 4.507812 -4.308594 4.28125 -5.429688 4.296875 -6.339844 C 4.308594 -6.886719 2.800781 -6.800781 2.785156 -6.214844 C 2.769531 -5.21875 3.078125 -4.269531 3.765625 -3.625 C 2.800781 -3.203125 1.972656 -2.476562 1.300781 -1.609375 C 1.582031 -4.394531 2.28125 -7.234375 2.996094 -9.824219 C 3.164062 -10.441406 1.652344 -10.441406 1.511719 -9.921875 C 0.546875 -6.367188 -0.433594 -2.253906 -0.320312 1.457031 C -0.292969 2 1.105469 1.917969 1.191406 1.386719 C 1.191406 1.371094 1.203125 1.359375 1.21875 1.328125 C 1.863281 -0.378906 3.136719 -2.730469 5.136719 -3.136719 C 5.527344 -3.21875 5.890625 -3.609375 5.417969 -3.863281 Z M 5.417969 -3.863281 "/></g></g></g><g fill="#ecb365" fill-opacity="1"><g transform="translate(220.079168, 270.00136)"><g><path d="M 3.90625 -9.867188 C 3.007812 -9.867188 2.351562 -9.460938 1.902344 -8.84375 C 0.699219 -8.3125 0.28125 -6.691406 0.0703125 -5.515625 C -0.210938 -3.933594 -0.238281 -1.960938 0.953125 -0.726562 C 2.492188 0.867188 5.039062 0.152344 5.90625 -1.777344 C 6.757812 -3.695312 7.09375 -9.851562 3.90625 -9.867188 Z M 4.617188 -2.421875 C 4.410156 -1.722656 3.917969 -0.601562 3.035156 -0.726562 C 2.28125 -0.855469 1.832031 -1.761719 1.636719 -2.40625 C 1.414062 -3.136719 1.386719 -3.933594 1.457031 -4.6875 C 1.695312 -4.03125 2.097656 -3.457031 2.644531 -3.105469 C 2.671875 -3.078125 2.730469 -3.066406 2.785156 -3.050781 C 3.175781 -2.828125 4.101562 -2.980469 4.113281 -3.441406 C 4.128906 -4.339844 4.199219 -5.261719 4.507812 -6.101562 C 4.714844 -6.691406 3.21875 -6.71875 3.035156 -6.199219 C 2.925781 -5.90625 2.855469 -5.613281 2.785156 -5.304688 C 2.742188 -5.5 2.714844 -5.695312 2.699219 -5.90625 C 2.644531 -6.621094 2.769531 -9.265625 4.101562 -8.664062 C 4.714844 -8.382812 4.8125 -6.339844 4.855469 -5.75 C 4.953125 -4.644531 4.941406 -3.484375 4.617188 -2.421875 Z M 4.617188 -2.421875 "/></g></g></g><g fill="#ecb365" fill-opacity="1"><g transform="translate(226.487596, 270.00136)"><g><path d="M 4.773438 -10.007812 C 3.75 -10.550781 2.546875 -10.132812 1.566406 -9.542969 C 1.273438 -9.9375 0.0546875 -9.769531 0.125 -9.265625 C 0.222656 -8.425781 0.28125 -7.585938 0.335938 -6.746094 C 0.378906 -6.171875 1.890625 -6.296875 1.847656 -6.871094 C 1.820312 -7.390625 1.777344 -7.894531 1.734375 -8.410156 C 1.777344 -8.425781 1.832031 -8.453125 1.863281 -8.480469 C 2.28125 -8.804688 3.304688 -9.726562 3.875 -9.195312 C 4.113281 -8.972656 4.085938 -8.480469 4.101562 -8.199219 C 4.15625 -7.261719 4.101562 -6.226562 3.988281 -5.289062 C 3.847656 -4.015625 3.164062 -2.785156 1.960938 -2.632812 C 1.972656 -3.527344 1.960938 -4.4375 1.929688 -5.347656 C 1.902344 -5.90625 0.390625 -5.808594 0.417969 -5.21875 C 0.449219 -4.367188 0.460938 -3.527344 0.460938 -2.6875 C -0.0273438 -2.546875 -0.40625 -2.128906 0.292969 -1.929688 C 0.335938 -1.917969 0.390625 -1.902344 0.433594 -1.890625 C 0.417969 -1.328125 0.40625 -0.769531 0.378906 -0.210938 C 0.335938 0.320312 1.847656 0.25 1.875 -0.351562 C 1.917969 -0.824219 1.929688 -1.316406 1.945312 -1.792969 C 2.5625 -1.847656 3.175781 -2.027344 3.707031 -2.308594 C 5.09375 -3.050781 5.417969 -4.308594 5.527344 -5.792969 C 5.625 -7.011719 6.117188 -9.277344 4.773438 -10.007812 Z M 4.773438 -10.007812 "/></g></g></g><g fill="#ecb365" fill-opacity="1"><g transform="translate(230.713235, 270.00136)"><g><path d="M 6.003906 -10.46875 C 6.019531 -11.027344 4.5625 -10.902344 4.492188 -10.328125 C 4.242188 -8.160156 3.738281 -6.003906 3.136719 -3.890625 C 2.519531 -6.046875 1.988281 -8.242188 1.679688 -10.46875 C 1.59375 -11.027344 0.125 -10.902344 0.167969 -10.328125 C 0.449219 -6.324219 0.28125 -2.265625 -0.0820312 1.734375 C -0.140625 2.265625 1.371094 2.195312 1.414062 1.609375 C 1.566406 -0.0429688 1.679688 -1.695312 1.75 -3.34375 C 1.960938 -2.644531 2.167969 -1.960938 2.378906 -1.273438 C 2.53125 -0.769531 3.707031 -0.785156 3.863281 -1.289062 C 4.101562 -2.015625 4.324219 -2.757812 4.535156 -3.5 C 4.589844 -1.75 4.6875 0 4.800781 1.734375 C 4.84375 2.308594 6.355469 2.183594 6.3125 1.609375 C 6.046875 -2.40625 5.863281 -6.4375 6.003906 -10.46875 Z M 6.003906 -10.46875 "/></g></g></g><g fill="#ecb365" fill-opacity="1"><g transform="translate(236.953755, 270.00136)"><g><path d="M 5.917969 -4.578125 C 5.863281 -5.148438 4.351562 -5.023438 4.410156 -4.449219 C 4.476562 -3.597656 4.773438 -2.238281 4.4375 -1.414062 C 4.074219 -0.460938 2.574219 -0.460938 1.832031 -1.273438 C 0.195312 -3.023438 1.902344 -5.527344 3.722656 -6.144531 C 4.507812 -6.410156 3.75 -6.914062 3.273438 -6.886719 C 2.464844 -6.828125 1.34375 -6.871094 1.902344 -7.933594 C 2.027344 -8.171875 2.757812 -8.929688 3.007812 -8.886719 C 3.246094 -8.84375 3.5 -8.339844 3.640625 -8.132812 C 3.875 -7.753906 4.074219 -7.304688 4.199219 -6.871094 C 4.199219 -6.523438 4.828125 -6.4375 5.277344 -6.578125 C 5.554688 -6.648438 5.78125 -6.800781 5.710938 -7.011719 C 5.722656 -7.851562 5.765625 -8.929688 5.90625 -9.671875 C 6.019531 -10.300781 4.519531 -10.273438 4.421875 -9.753906 C 4.394531 -9.574219 4.367188 -9.375 4.339844 -9.179688 C 3.34375 -9.992188 2.027344 -9.976562 0.785156 -8.523438 C -0.378906 -7.136719 0.476562 -6.453125 1.636719 -6.1875 C 0.671875 -5.554688 -0.0546875 -4.617188 -0.222656 -3.386719 C -0.40625 -2.097656 0.125 -0.742188 1.34375 -0.152344 C 2.40625 0.363281 4.898438 0.238281 5.695312 -0.726562 C 6.410156 -1.59375 6.003906 -3.640625 5.917969 -4.578125 Z M 4.253906 -5.808594 C 4.269531 -5.710938 4.28125 -5.597656 4.296875 -5.484375 C 4.351562 -4.914062 5.863281 -5.050781 5.808594 -5.625 C 5.792969 -5.722656 5.78125 -5.835938 5.765625 -5.949219 C 5.710938 -6.523438 4.199219 -6.382812 4.253906 -5.808594 Z M 4.253906 -5.808594 "/></g></g></g><g fill="#ecb365" fill-opacity="1"><g transform="translate(243.012371, 270.00136)"><g><path d="M 4.605469 -6.859375 C 4.578125 -5.417969 4.535156 -3.972656 4.476562 -2.53125 C 3.640625 -5.011719 2.574219 -7.445312 1.398438 -9.753906 C 1.246094 -10.203125 0.0273438 -10.105469 -0.0820312 -9.640625 C -0.0820312 -9.628906 -0.0820312 -9.613281 -0.0820312 -9.601562 C -0.0820312 -9.585938 -0.0820312 -9.574219 -0.0820312 -9.542969 C 0.167969 -6.5625 0.25 -3.511719 -0.0820312 -0.53125 C -0.152344 -0.015625 1.359375 -0.0546875 1.414062 -0.65625 C 1.625 -2.363281 1.664062 -4.101562 1.636719 -5.835938 C 2.742188 -3.234375 3.667969 -0.53125 4.226562 2.238281 C 4.199219 2.492188 4.535156 2.601562 4.882812 2.589844 C 5.316406 2.601562 5.792969 2.40625 5.722656 2.097656 C 5.933594 -0.921875 6.046875 -3.960938 6.117188 -6.996094 C 6.128906 -7.542969 4.617188 -7.460938 4.605469 -6.859375 Z M 4.632812 -9.976562 C 4.632812 -9.363281 4.632812 -8.746094 4.632812 -8.117188 C 4.617188 -7.570312 6.128906 -7.65625 6.128906 -8.257812 C 6.144531 -8.871094 6.144531 -9.488281 6.144531 -10.117188 C 6.144531 -10.664062 4.632812 -10.582031 4.632812 -9.976562 Z M 4.632812 -9.976562 "/></g></g></g><g fill="#ecb365" fill-opacity="1"><g transform="translate(249.098968, 270.00136)"><g><path d="M 5.402344 -9.921875 C 3.527344 -9.910156 1.386719 -9.878906 -0.363281 -9.125 C -0.882812 -8.902344 -0.9375 -7.375 -0.390625 -7.613281 C 0.0273438 -7.796875 0.476562 -7.933594 0.9375 -8.046875 C 0.753906 -4.882812 0.65625 -1.707031 0.65625 1.457031 C 0.65625 2.015625 2.167969 1.917969 2.167969 1.328125 C 2.167969 -1.875 2.265625 -5.09375 2.464844 -8.285156 C 3.359375 -8.382812 4.28125 -8.398438 5.121094 -8.410156 C 5.738281 -8.410156 5.933594 -9.921875 5.402344 -9.921875 Z M 5.402344 -9.921875 "/></g></g></g></svg>